<svg width="153" height="45" viewBox="0 0 153 45" fill="none" xmlns="http://www.w3.org/2000/svg">
<path d="M152.15 39.1026C152.15 41.4581 150.202 43.3661 147.793 43.3661H5.21257C2.80458 43.3661 0.850006 41.4581 0.850006 39.1026V5.103C0.850006 2.74864 2.80458 0.833984 5.21257 0.833984H147.792C150.202 0.833984 152.149 2.74864 152.149 5.103L152.15 39.1026Z" fill="white"/>
<path d="M147.333 0.885582C149.957 0.885582 152.092 2.96712 152.092 5.5252V38.6752C152.092 41.2333 149.957 43.3148 147.333 43.3148H5.66667C3.043 43.3148 0.908083 41.2333 0.908083 38.6752V5.5252C0.908083 2.96712 3.043 0.885582 5.66667 0.885582H147.333ZM147.333 0.000202179H5.66667C2.55142 0.000202179 0 2.48783 0 5.5252V38.6752C0 41.7126 2.55142 44.2002 5.66667 44.2002H147.333C150.449 44.2002 153 41.7126 153 38.6752V5.5252C153 2.48783 150.449 0.000202179 147.333 0.000202179Z" fill="#A6A6A6"/>
<path d="M34.1451 21.8612C34.1122 18.2997 37.1359 16.5671 37.2742 16.4864C35.5617 14.0521 32.9075 13.7195 31.9747 13.693C29.7455 13.4643 27.5831 14.9936 26.4475 14.9936C25.2892 14.9936 23.5405 13.7151 21.6557 13.7527C19.2304 13.7891 16.9615 15.1582 15.7171 17.2843C13.1489 21.6192 15.0643 27.9895 17.5247 31.4934C18.7555 33.2095 20.1937 35.1256 22.0762 35.0582C23.9179 34.9841 24.6058 33.9134 26.8283 33.9134C29.0303 33.9134 29.6763 35.0582 31.5962 35.0151C33.5727 34.9841 34.8171 33.2913 36.0049 31.5597C37.4272 29.5928 37.9984 27.6558 38.0211 27.5563C37.9746 27.5409 34.1825 26.1298 34.1451 21.8612Z" fill="black"/>
<path d="M30.5184 11.388C31.5089 10.1802 32.1867 8.53707 31.9985 6.86963C30.5649 6.93151 28.7719 7.8365 27.7395 9.01775C26.826 10.0587 26.01 11.7648 26.2208 13.3692C27.8313 13.4864 29.4848 12.577 30.5184 11.388Z" fill="black"/>
<path d="M55.59 11.0596C55.59 12.3602 55.19 13.3392 54.391 13.9967C53.6509 14.6033 52.5992 14.9072 51.2369 14.9072C50.5614 14.9072 49.9834 14.8784 49.4995 14.821V7.71473C50.1307 7.61528 50.8107 7.56445 51.5452 7.56445C52.8428 7.56445 53.8209 7.8396 54.4805 8.38989C55.2194 9.012 55.59 9.90153 55.59 11.0596ZM54.3377 11.0916C54.3377 10.2485 54.1088 9.60207 53.6509 9.15123C53.193 8.7015 52.5244 8.47608 51.6438 8.47608C51.2698 8.47608 50.9513 8.50039 50.6872 8.55122V13.9536C50.8334 13.9757 51.1009 13.9856 51.4896 13.9856C52.3986 13.9856 53.1001 13.7392 53.5942 13.2464C54.0884 12.7535 54.3377 12.0353 54.3377 11.0916Z" fill="black"/>
<path d="M62.2302 12.1958C62.2302 12.9969 61.9956 13.6533 61.5264 14.1682C61.0346 14.6975 60.3829 14.9616 59.5692 14.9616C58.7849 14.9616 58.1604 14.7086 57.6946 14.2003C57.23 13.6931 56.9976 13.0533 56.9976 12.282C56.9976 11.4753 57.2368 10.8134 57.7173 10.2996C58.1978 9.78579 58.8438 9.52832 59.6576 9.52832C60.4418 9.52832 61.072 9.78136 61.5491 10.2886C62.0024 10.7814 62.2302 11.4179 62.2302 12.1958ZM60.9983 12.2334C60.9983 11.7527 60.8918 11.3405 60.6798 10.9969C60.4305 10.5814 60.0758 10.3736 59.6145 10.3736C59.1374 10.3736 58.7747 10.5814 58.5254 10.9969C58.3123 11.3405 58.2069 11.7593 58.2069 12.2544C58.2069 12.735 58.3134 13.1472 58.5254 13.4908C58.7826 13.9063 59.1408 14.1141 59.6032 14.1141C60.0565 14.1141 60.4124 13.903 60.6685 13.4798C60.8884 13.1295 60.9983 12.714 60.9983 12.2334Z" fill="black"/>
<path d="M71.1337 9.63428L69.462 14.8432H68.374L67.6815 12.5813C67.5059 12.0167 67.3631 11.4553 67.252 10.8984H67.2305C67.1273 11.4708 66.9845 12.031 66.8009 12.5813L66.0654 14.8432H64.9649L63.393 9.63428H64.6136L65.2177 12.1106C65.3639 12.6962 65.484 13.2543 65.5803 13.7824H65.6019C65.6903 13.3471 65.8365 12.7924 66.0427 12.1216L66.8009 9.63538H67.7688L68.4953 12.0686C68.6709 12.662 68.8137 13.2333 68.9237 13.7836H68.9565C69.037 13.2476 69.1583 12.6763 69.3192 12.0686L69.9675 9.63538H71.1337V9.63428Z" fill="black"/>
<path d="M77.2911 14.8433H76.1033V11.8598C76.1033 10.9404 75.7452 10.4807 75.0267 10.4807C74.6742 10.4807 74.3897 10.6067 74.1687 10.8597C73.95 11.1128 73.8389 11.4111 73.8389 11.7526V14.8422H72.6512V11.1227C72.6512 10.6653 72.6365 10.1691 72.6082 9.63209H73.6519L73.7075 10.4465H73.7404C73.8786 10.1934 74.0849 9.98458 74.3557 9.81773C74.6776 9.62325 75.038 9.5249 75.4324 9.5249C75.9311 9.5249 76.3459 9.68181 76.6757 9.99674C77.0859 10.3824 77.2911 10.9581 77.2911 11.7227V14.8433Z" fill="black"/>
<path d="M80.5664 14.8432H79.3798V7.24414H80.5664V14.8432Z" fill="black"/>
<path d="M87.5591 12.1958C87.5591 12.9969 87.3245 13.6533 86.8553 14.1682C86.3634 14.6975 85.7106 14.9616 84.898 14.9616C84.1126 14.9616 83.4881 14.7086 83.0235 14.2003C82.5588 13.6931 82.3265 13.0533 82.3265 12.282C82.3265 11.4753 82.5656 10.8134 83.0461 10.2996C83.5267 9.78579 84.1727 9.52832 84.9853 9.52832C85.7707 9.52832 86.3997 9.78136 86.8779 10.2886C87.3313 10.7814 87.5591 11.4179 87.5591 12.1958ZM86.326 12.2334C86.326 11.7527 86.2195 11.3405 86.0075 10.9969C85.7593 10.5814 85.4035 10.3736 84.9433 10.3736C84.4651 10.3736 84.1024 10.5814 83.8542 10.9969C83.6411 11.3405 83.5357 11.7593 83.5357 12.2544C83.5357 12.735 83.6423 13.1472 83.8542 13.4908C84.1115 13.9063 84.4696 14.1141 84.932 14.1141C85.3853 14.1141 85.7401 13.903 85.9962 13.4798C86.2172 13.1295 86.326 12.714 86.326 12.2334Z" fill="black"/>
<path d="M93.3074 14.8434H92.2409L92.1525 14.2434H92.1196C91.7547 14.7218 91.2345 14.9616 90.559 14.9616C90.0547 14.9616 89.6467 14.8036 89.3396 14.4898C89.0608 14.2047 88.9214 13.85 88.9214 13.429C88.9214 12.7925 89.1934 12.3074 89.7408 11.9715C90.287 11.6356 91.0554 11.4709 92.0448 11.4786V11.3814C92.0448 10.6952 91.6754 10.3527 90.9353 10.3527C90.4083 10.3527 89.9436 10.4819 89.5424 10.7383L89.301 9.97805C89.7974 9.6786 90.4106 9.52832 91.1336 9.52832C92.5299 9.52832 93.2303 10.2466 93.2303 11.6831V13.6013C93.2303 14.1218 93.2564 14.5362 93.3074 14.8434ZM92.0743 13.0533V12.2499C90.7641 12.2278 90.1091 12.5781 90.1091 13.2997C90.1091 13.5715 90.1839 13.7748 90.3369 13.9107C90.4899 14.0467 90.6848 14.1141 90.9172 14.1141C91.1778 14.1141 91.4215 14.0334 91.6436 13.8732C91.8669 13.7118 92.004 13.5074 92.055 13.2566C92.0675 13.2002 92.0743 13.1317 92.0743 13.0533Z" fill="black"/>
<path d="M100.056 14.8432H99.0024L98.9468 14.0067H98.914C98.5774 14.6432 98.0039 14.9615 97.1981 14.9615C96.5544 14.9615 96.0183 14.715 95.5933 14.2222C95.1683 13.7294 94.9564 13.0896 94.9564 12.3039C94.9564 11.4608 95.1864 10.7779 95.6488 10.2564C96.0965 9.77017 96.645 9.52707 97.2978 9.52707C98.0152 9.52707 98.5173 9.76244 98.8029 10.2343H98.8256V7.24414H100.014V13.4399C100.014 13.9471 100.028 14.4145 100.056 14.8432ZM98.8256 12.6465V11.778C98.8256 11.6277 98.8142 11.5061 98.7927 11.4133C98.7258 11.1348 98.5819 10.9006 98.3632 10.7116C98.1422 10.5227 97.8758 10.4276 97.5687 10.4276C97.1256 10.4276 96.7788 10.5989 96.5238 10.9426C96.271 11.2862 96.143 11.7249 96.143 12.2608C96.143 12.7758 96.2642 13.1935 96.5079 13.515C96.7652 13.8576 97.112 14.0288 97.546 14.0288C97.9359 14.0288 98.2476 13.8863 98.4844 13.6001C98.7134 13.336 98.8256 13.0178 98.8256 12.6465Z" fill="black"/>
<path d="M110.214 12.1958C110.214 12.9969 109.98 13.6533 109.511 14.1682C109.019 14.6975 108.368 14.9616 107.553 14.9616C106.77 14.9616 106.146 14.7086 105.679 14.2003C105.214 13.6931 104.982 13.0533 104.982 12.282C104.982 11.4753 105.221 10.8134 105.701 10.2996C106.182 9.78579 106.828 9.52832 107.643 9.52832C108.426 9.52832 109.057 9.78136 109.533 10.2886C109.987 10.7814 110.214 11.4179 110.214 12.1958ZM108.984 12.2334C108.984 11.7527 108.877 11.3405 108.665 10.9969C108.415 10.5814 108.061 10.3736 107.599 10.3736C107.123 10.3736 106.76 10.5814 106.51 10.9969C106.296 11.3405 106.191 11.7593 106.191 12.2544C106.191 12.735 106.298 13.1472 106.51 13.4908C106.767 13.9063 107.125 14.1141 107.587 14.1141C108.041 14.1141 108.398 13.903 108.654 13.4798C108.873 13.1295 108.984 12.714 108.984 12.2334Z" fill="black"/>
<path d="M116.601 14.8433H115.414V11.8598C115.414 10.9404 115.056 10.4807 114.336 10.4807C113.984 10.4807 113.699 10.6067 113.48 10.8597C113.26 11.1128 113.15 11.4111 113.15 11.7526V14.8422H111.961V11.1227C111.961 10.6653 111.947 10.1691 111.919 9.63209H112.962L113.017 10.4465H113.05C113.189 10.1934 113.396 9.98458 113.665 9.81773C113.988 9.62325 114.348 9.5249 114.743 9.5249C115.241 9.5249 115.656 9.68181 115.985 9.99674C116.397 10.3824 116.601 10.9581 116.601 11.7227V14.8433Z" fill="black"/>
<path d="M124.594 10.5016H123.286V13.0321C123.286 13.6752 123.519 13.9967 123.979 13.9967C124.192 13.9967 124.369 13.979 124.508 13.9426L124.539 14.8211C124.304 14.9072 123.996 14.9503 123.616 14.9503C123.147 14.9503 122.782 14.8111 122.518 14.5326C122.253 14.2542 122.121 13.7857 122.121 13.1282V10.5016H121.34V9.63418H122.121V8.67946L123.285 8.33691V9.63308H124.593V10.5016H124.594Z" fill="black"/>
<path d="M130.882 14.8432H129.693V11.8818C129.693 10.9481 129.335 10.4807 128.617 10.4807C128.067 10.4807 127.69 10.7514 127.484 11.2929C127.449 11.4067 127.429 11.5459 127.429 11.7094V14.8421H126.242V7.24414H127.429V10.3834H127.451C127.825 9.81216 128.361 9.52707 129.056 9.52707C129.548 9.52707 129.955 9.68398 130.278 9.99891C130.68 10.3912 130.882 10.9746 130.882 11.7459V14.8432Z" fill="black"/>
<path d="M137.368 11.9922C137.368 12.1999 137.352 12.3745 137.324 12.517H133.762C133.778 13.032 133.948 13.4242 134.277 13.6961C134.579 13.9392 134.968 14.0607 135.444 14.0607C135.971 14.0607 136.451 13.979 136.884 13.8143L137.07 14.6187C136.563 14.8331 135.967 14.9403 135.277 14.9403C134.45 14.9403 133.798 14.7027 133.326 14.2276C132.853 13.7524 132.618 13.1148 132.618 12.3148C132.618 11.5292 132.837 10.875 133.278 10.3534C133.738 9.79653 134.36 9.51807 135.145 9.51807C135.914 9.51807 136.498 9.79653 136.892 10.3534C137.21 10.7954 137.368 11.3424 137.368 11.9922ZM136.235 11.6927C136.244 11.3491 136.165 11.0529 136.005 10.8032C135.798 10.4816 135.484 10.3203 135.059 10.3203C134.672 10.3203 134.356 10.4772 134.114 10.7921C133.917 11.043 133.8 11.3424 133.762 11.6927H136.235Z" fill="black"/>
<path d="M60.7977 34.8118H58.2239L56.814 30.4923H51.9135L50.5705 34.8118H48.0647L52.9199 20.1064H55.9187L60.7977 34.8118ZM56.389 28.6801L55.114 24.8403C54.9791 24.448 54.7264 23.5242 54.3535 22.07H54.3082C54.1597 22.6955 53.9206 23.6192 53.5919 24.8403L52.3396 28.6801H56.389Z" fill="black"/>
<path d="M73.2836 29.3798C73.2836 31.1832 72.7838 32.6086 71.7842 33.6551C70.8889 34.5866 69.7771 35.0518 68.4499 35.0518C67.0174 35.0518 65.9883 34.5501 65.3616 33.5468H65.3163V39.1325H62.9V27.6991C62.9 26.5654 62.8694 25.4018 62.8105 24.2084H64.9355L65.0703 25.8891H65.1157C65.9215 24.6228 67.1443 23.9907 68.7854 23.9907C70.0683 23.9907 71.1393 24.4847 71.9961 25.4736C72.8552 26.4637 73.2836 27.7654 73.2836 29.3798ZM70.822 29.466C70.822 28.4339 70.584 27.5831 70.1057 26.9134C69.5833 26.2151 68.8817 25.8659 68.0023 25.8659C67.4061 25.8659 66.8644 26.0604 66.3805 26.4438C65.8954 26.8306 65.5781 27.3356 65.4296 27.961C65.3548 28.2527 65.3174 28.4914 65.3174 28.6792V30.4472C65.3174 31.2185 65.5599 31.8694 66.045 32.4009C66.5301 32.9324 67.1602 33.1976 67.9354 33.1976C68.8455 33.1976 69.5538 32.855 70.0604 32.1721C70.5681 31.4881 70.822 30.5865 70.822 29.466Z" fill="black"/>
<path d="M85.7922 29.3798C85.7922 31.1832 85.2924 32.6086 84.2917 33.6551C83.3975 34.5866 82.2857 35.0518 80.9585 35.0518C79.526 35.0518 78.4969 34.5501 77.8713 33.5468H77.826V39.1325H75.4097V27.6991C75.4097 26.5654 75.3791 25.4018 75.3202 24.2084H77.4452L77.5801 25.8891H77.6254C78.4301 24.6228 79.6529 23.9907 81.2951 23.9907C82.5769 23.9907 83.6479 24.4847 84.507 25.4736C85.3627 26.4637 85.7922 27.7654 85.7922 29.3798ZM83.3306 29.466C83.3306 28.4339 83.0915 27.5831 82.6132 26.9134C82.0907 26.2151 81.3915 25.8659 80.5109 25.8659C79.9136 25.8659 79.373 26.0604 78.8879 26.4438C78.4029 26.8306 78.0867 27.3356 77.9382 27.961C77.8645 28.2527 77.826 28.4914 77.826 28.6792V30.4472C77.826 31.2185 78.0685 31.8694 78.5513 32.4009C79.0364 32.9313 79.6665 33.1976 80.444 33.1976C81.3541 33.1976 82.0624 32.855 82.569 32.1721C83.0767 31.4881 83.3306 30.5865 83.3306 29.466Z" fill="black"/>
<path d="M99.7775 30.6881C99.7775 31.9389 99.3321 32.9566 98.4379 33.7423C97.4553 34.6009 96.0874 35.0296 94.3296 35.0296C92.7067 35.0296 91.4056 34.7246 90.4207 34.1136L90.9806 32.15C92.0414 32.7754 93.2053 33.0892 94.4735 33.0892C95.3836 33.0892 96.0919 32.8881 96.6008 32.4881C97.1074 32.0881 97.3601 31.5511 97.3601 30.8814C97.3601 30.2847 97.1516 29.782 96.7334 29.3742C96.3175 28.9665 95.6227 28.5875 94.6526 28.2372C92.0119 27.2769 90.6928 25.8703 90.6928 24.0205C90.6928 22.8116 91.1551 21.8204 92.0811 21.0492C93.0036 20.2768 94.2344 19.8911 95.7735 19.8911C97.1459 19.8911 98.2861 20.1243 99.1961 20.5895L98.5921 22.51C97.7421 22.0591 96.781 21.8337 95.7055 21.8337C94.8555 21.8337 94.1913 22.0381 93.7153 22.4448C93.313 22.8083 93.1113 23.2514 93.1113 23.7763C93.1113 24.3575 93.3413 24.8382 93.8037 25.2161C94.2061 25.5653 94.9371 25.9432 95.9979 26.3509C97.2955 26.8603 98.2487 27.4559 98.8618 28.1388C99.4727 28.8195 99.7775 29.6715 99.7775 30.6881Z" fill="black"/>
<path d="M107.766 25.9765H105.103V31.1247C105.103 32.4341 105.572 33.0882 106.513 33.0882C106.945 33.0882 107.303 33.0518 107.586 32.9788L107.653 34.7678C107.177 34.9413 106.55 35.0286 105.774 35.0286C104.82 35.0286 104.074 34.7446 103.536 34.1778C103 33.6098 102.73 32.6573 102.73 31.3191V25.9743H101.143V24.2063H102.73V22.2648L105.103 21.5664V24.2063H107.766V25.9765Z" fill="black"/>
<path d="M119.783 29.4228C119.783 31.0526 119.305 32.3908 118.351 33.4372C117.35 34.5146 116.022 35.0516 114.366 35.0516C112.77 35.0516 111.5 34.5356 110.552 33.5035C109.605 32.4715 109.131 31.1687 109.131 29.5985C109.131 27.9553 109.618 26.6094 110.596 25.563C111.572 24.5155 112.889 23.9917 114.545 23.9917C116.141 23.9917 117.425 24.5077 118.394 25.5409C119.321 26.5431 119.783 27.8371 119.783 29.4228ZM117.276 29.499C117.276 28.5211 117.062 27.6824 116.628 26.9829C116.121 26.1365 115.397 25.7144 114.459 25.7144C113.487 25.7144 112.75 26.1376 112.243 26.9829C111.809 27.6835 111.595 28.5355 111.595 29.5432C111.595 30.5211 111.809 31.3598 112.243 32.0582C112.766 32.9046 113.495 33.3267 114.437 33.3267C115.36 33.3267 116.084 32.8958 116.606 32.0361C117.052 31.3234 117.276 30.4758 117.276 29.499Z" fill="black"/>
<path d="M127.637 26.2803C127.398 26.2372 127.143 26.2151 126.876 26.2151C126.026 26.2151 125.368 26.5278 124.906 27.1543C124.503 27.7068 124.302 28.4052 124.302 29.2483V34.812H121.887L121.909 27.5477C121.909 26.3256 121.879 25.2129 121.819 24.2095H123.923L124.012 26.2383H124.078C124.333 25.541 124.736 24.9797 125.287 24.5587C125.825 24.1797 126.406 23.9907 127.033 23.9907C127.256 23.9907 127.458 24.0062 127.637 24.0338V26.2803Z" fill="black"/>
<path d="M138.443 29.0084C138.443 29.4305 138.415 29.7863 138.355 30.0769H131.106C131.135 31.1245 131.485 31.9256 132.158 32.4781C132.769 32.972 133.559 33.2196 134.529 33.2196C135.602 33.2196 136.581 33.0527 137.462 32.7179L137.841 34.3533C136.811 34.7909 135.597 35.0085 134.195 35.0085C132.508 35.0085 131.184 34.5246 130.221 33.5577C129.26 32.5908 128.778 31.2924 128.778 29.6637C128.778 28.0647 129.226 26.7332 130.123 25.6713C131.061 24.5376 132.329 23.9707 133.925 23.9707C135.492 23.9707 136.679 24.5376 137.485 25.6713C138.123 26.5719 138.443 27.6857 138.443 29.0084ZM136.139 28.3973C136.155 27.699 135.998 27.0956 135.67 26.5862C135.252 25.931 134.609 25.6039 133.745 25.6039C132.955 25.6039 132.312 25.9232 131.821 26.5641C131.419 27.0735 131.18 27.6846 131.106 28.3962H136.139V28.3973Z" fill="black"/>
</svg>
