<svg width="152" height="45" viewBox="0 0 152 45" fill="none" xmlns="http://www.w3.org/2000/svg">
<path d="M146.37 44.0557H5.62963C2.53474 44.0557 0 41.5843 0 38.5668V5.63344C0 2.61593 2.53474 0.144555 5.62963 0.144555H146.37C149.465 0.144555 152 2.61593 152 5.63344V38.5668C152 41.5843 149.465 44.0557 146.37 44.0557Z" fill="white"/>
<path d="M146.37 1.02415C148.977 1.02415 151.098 3.09209 151.098 5.63344V38.5668C151.098 41.1081 148.977 43.1761 146.37 43.1761H5.62963C3.02311 43.1761 0.902148 41.1081 0.902148 38.5668V5.63344C0.902148 3.09209 3.02311 1.02415 5.62963 1.02415H146.37ZM146.37 0.144555H5.62963C2.53474 0.144555 0 2.61593 0 5.63344V38.5668C0 41.5843 2.53474 44.0557 5.62963 44.0557H146.37C149.465 44.0557 152 41.5843 152 38.5668V5.63344C152 2.61593 149.465 0.144555 146.37 0.144555Z" fill="#A6A6A6"/>
<path d="M10.9046 8.42042C10.5739 8.75798 10.3824 9.28355 10.3824 9.96417V34.2415C10.3824 34.9221 10.5739 35.4477 10.9046 35.7853L10.9862 35.8594L24.9393 22.2607V21.9396L10.9862 8.34083L10.9046 8.42042Z" fill="black"/>
<path d="M31.274 26.7959L26.6281 22.2607V21.9396L31.2796 17.4044L31.3837 17.4634L36.8923 20.5194C38.4644 21.3866 38.4644 22.8137 36.8923 23.6864L31.3837 26.7369L31.274 26.7959Z" fill="black"/>
<path d="M30.5393 27.5814L25.7837 22.9447L11.749 36.6299C12.2712 37.165 13.1227 37.2295 14.0909 36.6944L30.5393 27.5814Z" fill="black"/>
<path d="M30.5393 16.6191L14.0909 7.5062C13.1227 6.97652 12.2712 7.04101 11.749 7.57618L25.7837 21.2559L30.5393 16.6191Z" fill="black"/>
<path d="M53.3886 11.3898C53.3886 12.3064 53.1071 13.0406 52.5526 13.5881C51.915 14.2371 51.0847 14.5637 50.0671 14.5637C49.0946 14.5637 48.2642 14.2317 47.583 13.5771C46.9004 12.9129 46.5598 12.0978 46.5598 11.1222C46.5598 10.1465 46.9004 9.33145 47.583 8.67278C48.2642 8.01274 49.0946 7.68066 50.0671 7.68066C50.5513 7.68066 51.0129 7.77809 51.4534 7.95923C51.8925 8.14173 52.25 8.38873 52.509 8.69336L51.9207 9.27244C51.4689 8.75237 50.8538 8.49577 50.0671 8.49577C49.3578 8.49577 48.7427 8.73728 48.2206 9.22441C47.7041 9.71293 47.4451 10.3455 47.4451 11.1222C47.4451 11.8989 47.7041 12.537 48.2206 13.0255C48.7427 13.5071 49.3578 13.7541 50.0671 13.7541C50.8201 13.7541 51.4534 13.5071 51.953 13.02C52.2824 12.6975 52.4696 12.2529 52.5188 11.6848H50.0671V10.8917H53.3379C53.3773 11.0632 53.3886 11.2292 53.3886 11.3898Z" fill="black" stroke="black" stroke-width="0.16" stroke-miterlimit="10"/>
<path d="M58.5777 8.64027H55.5053V10.726H58.2751V11.5192H55.5053V13.605H58.5777V14.4132H54.6355V7.83203H58.5777V8.64027Z" fill="black" stroke="black" stroke-width="0.16" stroke-miterlimit="10"/>
<path d="M62.2397 14.4132H61.37V8.64027H59.4854V7.83203H64.1257V8.64027H62.2397V14.4132Z" fill="black" stroke="black" stroke-width="0.16" stroke-miterlimit="10"/>
<path d="M67.4838 14.4132V7.83203H68.3522V14.4132H67.4838Z" fill="black" stroke="black" stroke-width="0.16" stroke-miterlimit="10"/>
<path d="M72.2014 14.4132H71.3386V8.64027H69.4471V7.83203H74.0929V8.64027H72.2014V14.4132Z" fill="black" stroke="black" stroke-width="0.16" stroke-miterlimit="10"/>
<path d="M82.878 13.5661C82.2123 14.2317 81.3875 14.5637 80.4038 14.5637C79.4143 14.5637 78.5896 14.2317 77.9239 13.5661C77.2596 12.902 76.9289 12.0869 76.9289 11.1222C76.9289 10.1575 77.2596 9.34243 77.9239 8.67827C78.5896 8.01274 79.4143 7.68066 80.4038 7.68066C81.3819 7.68066 82.2066 8.01274 82.8724 8.68376C83.5423 9.3534 83.873 10.163 83.873 11.1222C83.873 12.0869 83.5423 12.902 82.878 13.5661ZM78.5671 13.0145C79.0681 13.5071 79.6775 13.7541 80.4038 13.7541C81.1243 13.7541 81.7394 13.5071 82.2348 13.0145C82.7344 12.5219 82.9878 11.8893 82.9878 11.1222C82.9878 10.3551 82.7344 9.72253 82.2348 9.2299C81.7394 8.73728 81.1243 8.49028 80.4038 8.49028C79.6775 8.49028 79.0681 8.73728 78.5671 9.2299C78.0675 9.72253 77.8141 10.3551 77.8141 11.1222C77.8141 11.8893 78.0675 12.5219 78.5671 13.0145Z" fill="black" stroke="black" stroke-width="0.16" stroke-miterlimit="10"/>
<path d="M85.0932 14.4132V7.83203H86.1488L89.4309 12.9504H89.4689L89.4309 11.6852V7.83203H90.2992V14.4132H89.3929L85.956 9.04233H85.918L85.956 10.313V14.4132H85.0932Z" fill="black" stroke="black" stroke-width="0.16" stroke-miterlimit="10"/>
<path d="M76.715 24.0241C74.0704 24.0241 71.9101 25.9864 71.9101 28.6938C71.9101 31.3792 74.0704 33.3621 76.715 33.3621C79.3651 33.3621 81.5255 31.3792 81.5255 28.6938C81.5255 25.9864 79.3651 24.0241 76.715 24.0241ZM76.715 31.5233C75.2639 31.5233 74.0156 30.3555 74.0156 28.6938C74.0156 27.01 75.2639 25.8629 76.715 25.8629C78.166 25.8629 79.42 27.01 79.42 28.6938C79.42 30.3555 78.166 31.5233 76.715 31.5233ZM66.2312 24.0241C63.581 24.0241 61.4263 25.9864 61.4263 28.6938C61.4263 31.3792 63.581 33.3621 66.2312 33.3621C68.8799 33.3621 71.0361 31.3792 71.0361 28.6938C71.0361 25.9864 68.8799 24.0241 66.2312 24.0241ZM66.2312 31.5233C64.7787 31.5233 63.5262 30.3555 63.5262 28.6938C63.5262 27.01 64.7787 25.8629 66.2312 25.8629C67.6822 25.8629 68.9306 27.01 68.9306 28.6938C68.9306 30.3555 67.6822 31.5233 66.2312 31.5233ZM53.7559 25.4553V27.4396H58.6157C58.4736 28.5483 58.0936 29.3634 57.5109 29.9315C56.8016 30.6176 55.6967 31.3792 53.7559 31.3792C50.7652 31.3792 48.4233 29.0258 48.4233 26.1099C48.4233 23.1939 50.7652 20.8405 53.7559 20.8405C55.373 20.8405 56.5496 21.4567 57.418 22.2553L58.8522 20.857C57.6376 19.7263 56.0219 18.8577 53.7559 18.8577C49.6547 18.8577 46.208 22.1112 46.208 26.1099C46.208 30.1085 49.6547 33.3621 53.7559 33.3621C55.9726 33.3621 57.6376 32.654 58.9464 31.3257C60.2877 30.018 60.7057 28.1792 60.7057 26.6944C60.7057 26.2334 60.6663 25.8094 60.5959 25.4553H53.7559ZM104.769 26.9936C104.373 25.9493 103.153 24.0241 100.668 24.0241C98.2047 24.0241 96.1541 25.9164 96.1541 28.6938C96.1541 31.3092 98.1835 33.3621 100.904 33.3621C103.104 33.3621 104.373 32.0543 104.895 31.2927L103.263 30.232C102.718 31.0087 101.977 31.5233 100.904 31.5233C99.8387 31.5233 99.0744 31.0471 98.5847 30.1085L104.99 27.5246L104.769 26.9936ZM98.2384 28.5483C98.1835 26.748 99.6726 25.8258 100.739 25.8258C101.575 25.8258 102.285 26.2334 102.521 26.8166L98.2384 28.5483ZM93.0324 33.078H95.1379V19.3558H93.0324V33.078ZM89.5843 25.0642H89.5139C89.041 24.5181 88.1389 24.0241 86.9961 24.0241C84.5979 24.0241 82.4051 26.0769 82.4051 28.7089C82.4051 31.3257 84.5979 33.3621 86.9961 33.3621C88.1389 33.3621 89.041 32.8639 89.5139 32.3013H89.5843V32.971C89.5843 34.7562 88.6061 35.7154 87.0284 35.7154C85.7421 35.7154 84.9441 34.8098 84.6147 34.0482L82.7837 34.7933C83.3115 36.031 84.709 37.5542 87.0284 37.5542C89.497 37.5542 91.58 36.1381 91.58 32.6924V24.3081H89.5843V25.0642ZM87.1762 31.5233C85.7252 31.5233 84.5106 30.3391 84.5106 28.7089C84.5106 27.0636 85.7252 25.8629 87.1762 25.8629C88.6061 25.8629 89.7335 27.0636 89.7335 28.7089C89.7335 30.3391 88.6061 31.5233 87.1762 31.5233ZM114.626 19.3558H109.591V33.078H111.69V27.8787H114.626C116.958 27.8787 119.245 26.2334 119.245 23.6165C119.245 21.0011 116.953 19.3558 114.626 19.3558ZM114.681 25.9699H111.69V21.2646H114.681C116.249 21.2646 117.144 22.5339 117.144 23.6165C117.144 24.6786 116.249 25.9699 114.681 25.9699ZM127.662 23.998C126.144 23.998 124.567 24.6512 123.918 26.0989L125.781 26.8605C126.183 26.0989 126.92 25.8519 127.7 25.8519C128.789 25.8519 129.894 26.49 129.911 27.6166V27.7607C129.531 27.5466 128.717 27.2296 127.717 27.2296C125.71 27.2296 123.665 28.3068 123.665 30.3171C123.665 32.1559 125.308 33.3401 127.156 33.3401C128.569 33.3401 129.349 32.7185 129.839 31.9953H129.911V33.0561H131.939V27.7922C131.939 25.3593 130.075 23.998 127.662 23.998ZM127.408 31.5178C126.722 31.5178 125.765 31.1857 125.765 30.3555C125.765 29.2934 126.958 28.8859 127.991 28.8859C128.916 28.8859 129.349 29.0848 129.911 29.3469C129.746 30.6176 128.624 31.5178 127.408 31.5178ZM139.328 24.2985L136.914 30.2471H136.842L134.347 24.2985H132.082L135.832 32.6115L133.692 37.2372H135.887L141.664 24.2985H139.328ZM120.399 33.078H122.505V19.3558H120.399V33.078Z" fill="black"/>
</svg>
